<mxfile host="Electron" modified="2024-03-12T19:52:51.953Z" agent="Mozilla/5.0 (Windows NT 10.0; Win64; x64) AppleWebKit/537.36 (KHTML, like Gecko) draw.io/24.0.4 Chrome/120.0.6099.109 Electron/28.1.0 Safari/537.36" etag="iIEfip4Id2vDTtBvO-6r" version="24.0.4" type="device">
  <diagram name="Strona-1" id="ZPURoTI-YACidWWffcV0">
    <mxGraphModel dx="949" dy="593" grid="1" gridSize="10" guides="1" tooltips="1" connect="1" arrows="1" fold="1" page="1" pageScale="1" pageWidth="827" pageHeight="1169" math="0" shadow="0">
      <root>
        <mxCell id="0" />
        <mxCell id="1" parent="0" />
        <mxCell id="iZXRrfKID2UvS0r0eVAW-1" value="2. Identyfikacja istotnych interesariuszy..." style="rounded=1;whiteSpace=wrap;html=1;" parent="1" vertex="1">
          <mxGeometry x="40" y="130" width="160" height="60" as="geometry" />
        </mxCell>
        <mxCell id="iZXRrfKID2UvS0r0eVAW-9" value="" style="edgeStyle=orthogonalEdgeStyle;rounded=0;orthogonalLoop=1;jettySize=auto;html=1;" parent="1" source="iZXRrfKID2UvS0r0eVAW-2" target="iZXRrfKID2UvS0r0eVAW-8" edge="1">
          <mxGeometry relative="1" as="geometry" />
        </mxCell>
        <mxCell id="iZXRrfKID2UvS0r0eVAW-2" value="5.1 Opracowanie narzędzia badawczego" style="rounded=1;whiteSpace=wrap;html=1;" parent="1" vertex="1">
          <mxGeometry x="210" y="730" width="120" height="60" as="geometry" />
        </mxCell>
        <mxCell id="iZXRrfKID2UvS0r0eVAW-3" value="3. Identyfikacja istotnych obszarów doskonalenia z punktu widzenia intersariuszy - badanie jakościowe" style="rounded=1;whiteSpace=wrap;html=1;" parent="1" vertex="1">
          <mxGeometry x="40" y="250" width="160" height="120" as="geometry" />
        </mxCell>
        <mxCell id="iZXRrfKID2UvS0r0eVAW-13" value="" style="edgeStyle=orthogonalEdgeStyle;rounded=0;orthogonalLoop=1;jettySize=auto;html=1;" parent="1" source="iZXRrfKID2UvS0r0eVAW-4" target="iZXRrfKID2UvS0r0eVAW-12" edge="1">
          <mxGeometry relative="1" as="geometry" />
        </mxCell>
        <mxCell id="iZXRrfKID2UvS0r0eVAW-4" value="3.1 Wybór celowy grupy respondentów do wywiadów jakościowych uwzględniający władze organizacji" style="rounded=1;whiteSpace=wrap;html=1;" parent="1" vertex="1">
          <mxGeometry x="240" y="250" width="120" height="120" as="geometry" />
        </mxCell>
        <mxCell id="iZXRrfKID2UvS0r0eVAW-7" value="" style="edgeStyle=orthogonalEdgeStyle;rounded=0;orthogonalLoop=1;jettySize=auto;html=1;" parent="1" source="iZXRrfKID2UvS0r0eVAW-5" target="iZXRrfKID2UvS0r0eVAW-6" edge="1">
          <mxGeometry relative="1" as="geometry" />
        </mxCell>
        <mxCell id="iZXRrfKID2UvS0r0eVAW-5" value="2.1 Analiza szerokiego spektrum potencjalnych intersariuszy uczelni" style="rounded=1;whiteSpace=wrap;html=1;" parent="1" vertex="1">
          <mxGeometry x="240" y="130" width="120" height="60" as="geometry" />
        </mxCell>
        <mxCell id="iZXRrfKID2UvS0r0eVAW-11" value="" style="edgeStyle=orthogonalEdgeStyle;rounded=0;orthogonalLoop=1;jettySize=auto;html=1;" parent="1" source="iZXRrfKID2UvS0r0eVAW-6" target="iZXRrfKID2UvS0r0eVAW-10" edge="1">
          <mxGeometry relative="1" as="geometry" />
        </mxCell>
        <mxCell id="iZXRrfKID2UvS0r0eVAW-6" value="2.2 Opis cech każdej z grup w celu ich klasyfikacji" style="whiteSpace=wrap;html=1;rounded=1;" parent="1" vertex="1">
          <mxGeometry x="400" y="130" width="120" height="60" as="geometry" />
        </mxCell>
        <mxCell id="iZXRrfKID2UvS0r0eVAW-19" value="" style="edgeStyle=orthogonalEdgeStyle;rounded=0;orthogonalLoop=1;jettySize=auto;html=1;" parent="1" source="iZXRrfKID2UvS0r0eVAW-8" target="iZXRrfKID2UvS0r0eVAW-18" edge="1">
          <mxGeometry relative="1" as="geometry" />
        </mxCell>
        <mxCell id="iZXRrfKID2UvS0r0eVAW-8" value="5.2 Wybór metody doboru grupy badawczej pozwalającej na uzyskanie wiarygodnych i statystycznie istotnych odpowiedzi" style="whiteSpace=wrap;html=1;rounded=1;" parent="1" vertex="1">
          <mxGeometry x="354" y="695" width="120" height="130" as="geometry" />
        </mxCell>
        <mxCell id="iZXRrfKID2UvS0r0eVAW-10" value="2.3 Wybór najisotniejszych grup intersariuszy przy uwzględnieniu misji i celów organizacji" style="whiteSpace=wrap;html=1;rounded=1;" parent="1" vertex="1">
          <mxGeometry x="560" y="120" width="120" height="80" as="geometry" />
        </mxCell>
        <mxCell id="iZXRrfKID2UvS0r0eVAW-15" value="" style="edgeStyle=orthogonalEdgeStyle;rounded=0;orthogonalLoop=1;jettySize=auto;html=1;" parent="1" source="iZXRrfKID2UvS0r0eVAW-12" target="iZXRrfKID2UvS0r0eVAW-14" edge="1">
          <mxGeometry relative="1" as="geometry" />
        </mxCell>
        <mxCell id="iZXRrfKID2UvS0r0eVAW-12" value="3.2 Opracowanie planu wywiadów umożliwiającego osiągnięcie celu badania" style="rounded=1;whiteSpace=wrap;html=1;" parent="1" vertex="1">
          <mxGeometry x="380" y="250" width="120" height="120" as="geometry" />
        </mxCell>
        <mxCell id="iZXRrfKID2UvS0r0eVAW-17" value="" style="edgeStyle=orthogonalEdgeStyle;rounded=0;orthogonalLoop=1;jettySize=auto;html=1;" parent="1" source="iZXRrfKID2UvS0r0eVAW-14" target="iZXRrfKID2UvS0r0eVAW-16" edge="1">
          <mxGeometry relative="1" as="geometry" />
        </mxCell>
        <mxCell id="iZXRrfKID2UvS0r0eVAW-14" value="3.3 Przeprowadzenie wywiadów badania jakościowego" style="rounded=1;whiteSpace=wrap;html=1;" parent="1" vertex="1">
          <mxGeometry x="520" y="250" width="120" height="120" as="geometry" />
        </mxCell>
        <mxCell id="iZXRrfKID2UvS0r0eVAW-16" value="3.4 Analiza &lt;br&gt;wyników wywiadu&lt;br&gt;z uwzględnieniem identyfikacji istotnych obszarów doskonalenia&lt;br&gt;z punktu widzenia intersariuszy" style="rounded=1;whiteSpace=wrap;html=1;" parent="1" vertex="1">
          <mxGeometry x="660" y="250" width="120" height="120" as="geometry" />
        </mxCell>
        <mxCell id="iZXRrfKID2UvS0r0eVAW-21" value="" style="edgeStyle=orthogonalEdgeStyle;rounded=0;orthogonalLoop=1;jettySize=auto;html=1;" parent="1" source="iZXRrfKID2UvS0r0eVAW-18" target="iZXRrfKID2UvS0r0eVAW-20" edge="1">
          <mxGeometry relative="1" as="geometry" />
        </mxCell>
        <mxCell id="iZXRrfKID2UvS0r0eVAW-18" value="5.4 weryfikacja narzędzia pomiarowego poprzez przeprowadzenie badania pilotażowego" style="whiteSpace=wrap;html=1;rounded=1;" parent="1" vertex="1">
          <mxGeometry x="520" y="720" width="120" height="100" as="geometry" />
        </mxCell>
        <mxCell id="iZXRrfKID2UvS0r0eVAW-23" value="" style="edgeStyle=orthogonalEdgeStyle;rounded=0;orthogonalLoop=1;jettySize=auto;html=1;" parent="1" source="iZXRrfKID2UvS0r0eVAW-20" target="iZXRrfKID2UvS0r0eVAW-22" edge="1">
          <mxGeometry relative="1" as="geometry" />
        </mxCell>
        <mxCell id="iZXRrfKID2UvS0r0eVAW-20" value="5.5 Wprowadzenie ewentualnych korekt do narzędzia pomiarowego" style="whiteSpace=wrap;html=1;rounded=1;" parent="1" vertex="1">
          <mxGeometry x="680" y="720" width="120" height="70" as="geometry" />
        </mxCell>
        <mxCell id="iZXRrfKID2UvS0r0eVAW-25" value="" style="edgeStyle=orthogonalEdgeStyle;rounded=0;orthogonalLoop=1;jettySize=auto;html=1;" parent="1" source="iZXRrfKID2UvS0r0eVAW-22" target="iZXRrfKID2UvS0r0eVAW-24" edge="1">
          <mxGeometry relative="1" as="geometry" />
        </mxCell>
        <mxCell id="iZXRrfKID2UvS0r0eVAW-22" value="5.6 Przeprowadzenie badania właściwego" style="whiteSpace=wrap;html=1;rounded=1;" parent="1" vertex="1">
          <mxGeometry x="680" y="885" width="120" height="60" as="geometry" />
        </mxCell>
        <mxCell id="iZXRrfKID2UvS0r0eVAW-27" value="" style="edgeStyle=orthogonalEdgeStyle;rounded=0;orthogonalLoop=1;jettySize=auto;html=1;" parent="1" source="iZXRrfKID2UvS0r0eVAW-24" target="iZXRrfKID2UvS0r0eVAW-26" edge="1">
          <mxGeometry relative="1" as="geometry" />
        </mxCell>
        <mxCell id="iZXRrfKID2UvS0r0eVAW-24" value="5.6 Analiza wyników badania; sprawdzenie reprezentatywności grupy badawczej i statystycznej istotności uzyskanych wyników" style="whiteSpace=wrap;html=1;rounded=1;" parent="1" vertex="1">
          <mxGeometry x="500" y="860" width="120" height="110" as="geometry" />
        </mxCell>
        <mxCell id="YzgCYqUCURwKcO3qDLiV-8" value="" style="edgeStyle=orthogonalEdgeStyle;rounded=0;orthogonalLoop=1;jettySize=auto;html=1;" edge="1" parent="1" source="iZXRrfKID2UvS0r0eVAW-26" target="YzgCYqUCURwKcO3qDLiV-7">
          <mxGeometry relative="1" as="geometry" />
        </mxCell>
        <mxCell id="YzgCYqUCURwKcO3qDLiV-10" value="" style="edgeStyle=orthogonalEdgeStyle;rounded=0;orthogonalLoop=1;jettySize=auto;html=1;dashed=1;" edge="1" parent="1" source="iZXRrfKID2UvS0r0eVAW-26" target="YzgCYqUCURwKcO3qDLiV-9">
          <mxGeometry relative="1" as="geometry">
            <Array as="points">
              <mxPoint x="380" y="1010" />
              <mxPoint x="690" y="1010" />
            </Array>
          </mxGeometry>
        </mxCell>
        <mxCell id="iZXRrfKID2UvS0r0eVAW-26" value="5.6 Analiza wyników badania" style="whiteSpace=wrap;html=1;rounded=1;" parent="1" vertex="1">
          <mxGeometry x="320" y="920" width="120" height="50" as="geometry" />
        </mxCell>
        <mxCell id="SLQnQ5sDmMqCRToJFb2x-1" value="1. Identyfikacja misji, wizji i celów uczelni..." style="rounded=1;whiteSpace=wrap;html=1;" parent="1" vertex="1">
          <mxGeometry x="40" y="40" width="160" height="60" as="geometry" />
        </mxCell>
        <mxCell id="SLQnQ5sDmMqCRToJFb2x-2" value="&lt;font style=&quot;font-size: 12px;&quot;&gt;4.&lt;span style=&quot;line-height: 150%; font-family: Arial, sans-serif;&quot;&gt;Analiza zewnętrznych źródeł informacji&lt;br/&gt;potencjalnie skorelowanych z wynikami działań organizacji wobec interesariuszy&lt;/span&gt;&amp;nbsp;&lt;/font&gt;" style="rounded=1;whiteSpace=wrap;html=1;" parent="1" vertex="1">
          <mxGeometry x="40" y="410" width="160" height="120" as="geometry" />
        </mxCell>
        <mxCell id="SLQnQ5sDmMqCRToJFb2x-3" value="&lt;font style=&quot;font-size: 12px;&quot;&gt;5. Statystyczna weryfikacja poziomu satysfakcji intersariuszy oraz istotności innych wniosków płynących z badania jakościowego&lt;/font&gt;" style="rounded=1;whiteSpace=wrap;html=1;" parent="1" vertex="1">
          <mxGeometry x="40" y="630" width="160" height="120" as="geometry" />
        </mxCell>
        <mxCell id="YzgCYqUCURwKcO3qDLiV-2" value="" style="edgeStyle=orthogonalEdgeStyle;rounded=0;orthogonalLoop=1;jettySize=auto;html=1;entryX=0;entryY=0.5;entryDx=0;entryDy=0;" edge="1" parent="1" source="YzgCYqUCURwKcO3qDLiV-1" target="YzgCYqUCURwKcO3qDLiV-3">
          <mxGeometry relative="1" as="geometry">
            <mxPoint x="260" y="860" as="targetPoint" />
          </mxGeometry>
        </mxCell>
        <mxCell id="YzgCYqUCURwKcO3qDLiV-1" value="5.1.1 Wybór szczegółowych pytań pomiaru SSI" style="rounded=1;whiteSpace=wrap;html=1;" vertex="1" parent="1">
          <mxGeometry x="120" y="830" width="120" height="60" as="geometry" />
        </mxCell>
        <mxCell id="YzgCYqUCURwKcO3qDLiV-6" style="edgeStyle=orthogonalEdgeStyle;rounded=0;orthogonalLoop=1;jettySize=auto;html=1;exitX=0.5;exitY=0;exitDx=0;exitDy=0;entryX=0;entryY=0.75;entryDx=0;entryDy=0;dashed=1;" edge="1" parent="1" source="YzgCYqUCURwKcO3qDLiV-3" target="iZXRrfKID2UvS0r0eVAW-8">
          <mxGeometry relative="1" as="geometry" />
        </mxCell>
        <mxCell id="YzgCYqUCURwKcO3qDLiV-3" value="5.1.1 Wybór szczegółowych pytań pomiaru SSI" style="rounded=1;whiteSpace=wrap;html=1;" vertex="1" parent="1">
          <mxGeometry x="270" y="830" width="120" height="60" as="geometry" />
        </mxCell>
        <mxCell id="YzgCYqUCURwKcO3qDLiV-5" style="edgeStyle=orthogonalEdgeStyle;rounded=0;orthogonalLoop=1;jettySize=auto;html=1;exitX=0.25;exitY=1;exitDx=0;exitDy=0;entryX=0.5;entryY=0;entryDx=0;entryDy=0;dashed=1;" edge="1" parent="1" source="iZXRrfKID2UvS0r0eVAW-2" target="YzgCYqUCURwKcO3qDLiV-1">
          <mxGeometry relative="1" as="geometry">
            <mxPoint x="181" y="820" as="targetPoint" />
          </mxGeometry>
        </mxCell>
        <mxCell id="YzgCYqUCURwKcO3qDLiV-7" value="5.7 Opracowanie raportu z badania" style="whiteSpace=wrap;html=1;rounded=1;" vertex="1" parent="1">
          <mxGeometry x="120" y="920" width="120" height="50" as="geometry" />
        </mxCell>
        <mxCell id="YzgCYqUCURwKcO3qDLiV-12" value="" style="edgeStyle=orthogonalEdgeStyle;rounded=0;orthogonalLoop=1;jettySize=auto;html=1;" edge="1" parent="1" source="YzgCYqUCURwKcO3qDLiV-9" target="YzgCYqUCURwKcO3qDLiV-11">
          <mxGeometry relative="1" as="geometry" />
        </mxCell>
        <mxCell id="YzgCYqUCURwKcO3qDLiV-9" value="5.6.1 Weryfikacja reprezentatywności grupy badawczej" style="whiteSpace=wrap;html=1;rounded=1;" vertex="1" parent="1">
          <mxGeometry x="630" y="1040" width="120" height="50" as="geometry" />
        </mxCell>
        <mxCell id="YzgCYqUCURwKcO3qDLiV-14" value="" style="edgeStyle=orthogonalEdgeStyle;rounded=0;orthogonalLoop=1;jettySize=auto;html=1;" edge="1" parent="1" source="YzgCYqUCURwKcO3qDLiV-11" target="YzgCYqUCURwKcO3qDLiV-13">
          <mxGeometry relative="1" as="geometry" />
        </mxCell>
        <mxCell id="YzgCYqUCURwKcO3qDLiV-11" value="5.6.2 Weryfikacja statystycznej istotności uzyskanych wyników" style="whiteSpace=wrap;html=1;rounded=1;" vertex="1" parent="1">
          <mxGeometry x="430" y="1040" width="120" height="70" as="geometry" />
        </mxCell>
        <mxCell id="YzgCYqUCURwKcO3qDLiV-16" value="" style="edgeStyle=orthogonalEdgeStyle;rounded=0;orthogonalLoop=1;jettySize=auto;html=1;" edge="1" parent="1" source="YzgCYqUCURwKcO3qDLiV-13" target="YzgCYqUCURwKcO3qDLiV-15">
          <mxGeometry relative="1" as="geometry" />
        </mxCell>
        <mxCell id="YzgCYqUCURwKcO3qDLiV-13" value="5.6.3 Obliczenie miar wskaźników SSI oraz innych wskaźników istotnych&amp;nbsp;z punktu widzenia celu badania" style="whiteSpace=wrap;html=1;rounded=1;" vertex="1" parent="1">
          <mxGeometry x="280" y="1040" width="120" height="100" as="geometry" />
        </mxCell>
        <mxCell id="YzgCYqUCURwKcO3qDLiV-17" value="" style="edgeStyle=orthogonalEdgeStyle;rounded=0;orthogonalLoop=1;jettySize=auto;html=1;dashed=1;" edge="1" parent="1" source="YzgCYqUCURwKcO3qDLiV-15" target="YzgCYqUCURwKcO3qDLiV-7">
          <mxGeometry relative="1" as="geometry" />
        </mxCell>
        <mxCell id="YzgCYqUCURwKcO3qDLiV-15" value="5.6.4 Analiza relacji wartości wskaźników z badania z innymi miarami" style="whiteSpace=wrap;html=1;rounded=1;" vertex="1" parent="1">
          <mxGeometry x="120" y="1010" width="120" height="100" as="geometry" />
        </mxCell>
        <mxCell id="YzgCYqUCURwKcO3qDLiV-18" value="&lt;font style=&quot;font-size: 12px;&quot;&gt;6. Wybór obszarów do doskonalenia&lt;/font&gt;" style="rounded=1;whiteSpace=wrap;html=1;" vertex="1" parent="1">
          <mxGeometry x="40" y="1170" width="160" height="120" as="geometry" />
        </mxCell>
        <mxCell id="YzgCYqUCURwKcO3qDLiV-36" value="" style="edgeStyle=orthogonalEdgeStyle;rounded=0;orthogonalLoop=1;jettySize=auto;html=1;entryX=0.5;entryY=0;entryDx=0;entryDy=0;" edge="1" parent="1" source="YzgCYqUCURwKcO3qDLiV-19" target="YzgCYqUCURwKcO3qDLiV-35">
          <mxGeometry relative="1" as="geometry" />
        </mxCell>
        <mxCell id="YzgCYqUCURwKcO3qDLiV-19" value="7.3 Określenie wstępnej wizji celu do poprawy" style="rounded=1;whiteSpace=wrap;html=1;" vertex="1" parent="1">
          <mxGeometry x="160" y="1560" width="120" height="60" as="geometry" />
        </mxCell>
        <mxCell id="YzgCYqUCURwKcO3qDLiV-23" value="" style="edgeStyle=orthogonalEdgeStyle;rounded=0;orthogonalLoop=1;jettySize=auto;html=1;entryX=0;entryY=0.5;entryDx=0;entryDy=0;" edge="1" parent="1" source="YzgCYqUCURwKcO3qDLiV-20" target="YzgCYqUCURwKcO3qDLiV-22">
          <mxGeometry relative="1" as="geometry" />
        </mxCell>
        <mxCell id="YzgCYqUCURwKcO3qDLiV-20" value="6.2 Analiza potencjału poprawy w odniesieniu do poszczególnych przyczyn istniejących wyzwań" style="rounded=1;whiteSpace=wrap;html=1;" vertex="1" parent="1">
          <mxGeometry x="420" y="1210" width="120" height="100" as="geometry" />
        </mxCell>
        <mxCell id="YzgCYqUCURwKcO3qDLiV-22" value="6.3 Wybór szczegółowych obszarów do poprawy" style="rounded=1;whiteSpace=wrap;html=1;" vertex="1" parent="1">
          <mxGeometry x="620" y="1230" width="120" height="60" as="geometry" />
        </mxCell>
        <mxCell id="YzgCYqUCURwKcO3qDLiV-24" value="7. Implementacja zmian w celu osiągnięcia poprawy w wybranych obszarach" style="rounded=1;whiteSpace=wrap;html=1;" vertex="1" parent="1">
          <mxGeometry x="40" y="1360" width="160" height="120" as="geometry" />
        </mxCell>
        <mxCell id="YzgCYqUCURwKcO3qDLiV-27" value="" style="edgeStyle=orthogonalEdgeStyle;rounded=0;orthogonalLoop=1;jettySize=auto;html=1;entryX=0.5;entryY=0;entryDx=0;entryDy=0;" edge="1" parent="1" source="YzgCYqUCURwKcO3qDLiV-25" target="YzgCYqUCURwKcO3qDLiV-28">
          <mxGeometry relative="1" as="geometry">
            <mxPoint x="380" y="1460" as="targetPoint" />
          </mxGeometry>
        </mxCell>
        <mxCell id="YzgCYqUCURwKcO3qDLiV-25" value="7.1 Zapewnienie zaangażowania i wsparcia najwyższego kierownictwa w zakresie decyzyjności i zasobów niezbędnych do wdrażania" style="rounded=1;whiteSpace=wrap;html=1;" vertex="1" parent="1">
          <mxGeometry x="240" y="1340" width="120" height="140" as="geometry" />
        </mxCell>
        <mxCell id="YzgCYqUCURwKcO3qDLiV-30" style="edgeStyle=orthogonalEdgeStyle;rounded=0;orthogonalLoop=1;jettySize=auto;html=1;exitX=0;exitY=1;exitDx=0;exitDy=0;entryX=0.5;entryY=0;entryDx=0;entryDy=0;" edge="1" parent="1" source="YzgCYqUCURwKcO3qDLiV-28" target="YzgCYqUCURwKcO3qDLiV-19">
          <mxGeometry relative="1" as="geometry">
            <mxPoint x="220" y="1560" as="targetPoint" />
            <Array as="points">
              <mxPoint x="220" y="1543" />
            </Array>
          </mxGeometry>
        </mxCell>
        <mxCell id="YzgCYqUCURwKcO3qDLiV-32" value="Zwinne" style="edgeLabel;html=1;align=center;verticalAlign=middle;resizable=0;points=[];" vertex="1" connectable="0" parent="YzgCYqUCURwKcO3qDLiV-30">
          <mxGeometry x="0.0094" y="1" relative="1" as="geometry">
            <mxPoint as="offset" />
          </mxGeometry>
        </mxCell>
        <mxCell id="YzgCYqUCURwKcO3qDLiV-31" style="edgeStyle=orthogonalEdgeStyle;rounded=0;orthogonalLoop=1;jettySize=auto;html=1;exitX=1;exitY=1;exitDx=0;exitDy=0;entryX=0.5;entryY=0;entryDx=0;entryDy=0;" edge="1" parent="1" source="YzgCYqUCURwKcO3qDLiV-28" target="YzgCYqUCURwKcO3qDLiV-52">
          <mxGeometry relative="1" as="geometry">
            <mxPoint x="660" y="1560" as="targetPoint" />
            <Array as="points">
              <mxPoint x="660" y="1543" />
            </Array>
          </mxGeometry>
        </mxCell>
        <mxCell id="YzgCYqUCURwKcO3qDLiV-33" value="Kaskadowe" style="edgeLabel;html=1;align=center;verticalAlign=middle;resizable=0;points=[];" vertex="1" connectable="0" parent="YzgCYqUCURwKcO3qDLiV-31">
          <mxGeometry x="-0.2279" relative="1" as="geometry">
            <mxPoint as="offset" />
          </mxGeometry>
        </mxCell>
        <mxCell id="YzgCYqUCURwKcO3qDLiV-28" value="7.2 Przypisanie &lt;br&gt;metody wdrażania &lt;br&gt;zmian w zależności &lt;br&gt;od charekterystyki &lt;br&gt;problemu" style="rhombus;whiteSpace=wrap;html=1;" vertex="1" parent="1">
          <mxGeometry x="370" y="1430" width="160" height="150" as="geometry" />
        </mxCell>
        <mxCell id="YzgCYqUCURwKcO3qDLiV-66" value="" style="edgeStyle=orthogonalEdgeStyle;rounded=0;orthogonalLoop=1;jettySize=auto;html=1;entryX=0;entryY=0.5;entryDx=0;entryDy=0;" edge="1" parent="1" source="YzgCYqUCURwKcO3qDLiV-34" target="YzgCYqUCURwKcO3qDLiV-20">
          <mxGeometry relative="1" as="geometry" />
        </mxCell>
        <mxCell id="YzgCYqUCURwKcO3qDLiV-34" value="6.1 Analiza przyczyn wyzwań w obszarach ujawnionych przez badanie" style="rounded=1;whiteSpace=wrap;html=1;" vertex="1" parent="1">
          <mxGeometry x="240" y="1230" width="120" height="60" as="geometry" />
        </mxCell>
        <mxCell id="YzgCYqUCURwKcO3qDLiV-38" value="" style="edgeStyle=orthogonalEdgeStyle;rounded=0;orthogonalLoop=1;jettySize=auto;html=1;entryX=0.5;entryY=0;entryDx=0;entryDy=0;" edge="1" parent="1" source="YzgCYqUCURwKcO3qDLiV-35" target="YzgCYqUCURwKcO3qDLiV-37">
          <mxGeometry relative="1" as="geometry" />
        </mxCell>
        <mxCell id="YzgCYqUCURwKcO3qDLiV-35" value="7.4 Określenie przewidywanych etapów wdrożenia i celów cząstkowych" style="rounded=1;whiteSpace=wrap;html=1;" vertex="1" parent="1">
          <mxGeometry x="320" y="1610" width="120" height="60" as="geometry" />
        </mxCell>
        <mxCell id="YzgCYqUCURwKcO3qDLiV-40" value="" style="edgeStyle=orthogonalEdgeStyle;rounded=0;orthogonalLoop=1;jettySize=auto;html=1;exitX=1;exitY=0.5;exitDx=0;exitDy=0;entryX=0.5;entryY=0;entryDx=0;entryDy=0;" edge="1" parent="1" source="YzgCYqUCURwKcO3qDLiV-37" target="YzgCYqUCURwKcO3qDLiV-39">
          <mxGeometry relative="1" as="geometry" />
        </mxCell>
        <mxCell id="YzgCYqUCURwKcO3qDLiV-37" value="7.5 Ustalenie szczegółów pracy zespołu doskonalącego" style="rounded=1;whiteSpace=wrap;html=1;" vertex="1" parent="1">
          <mxGeometry x="160" y="1660" width="120" height="60" as="geometry" />
        </mxCell>
        <mxCell id="YzgCYqUCURwKcO3qDLiV-42" value="" style="edgeStyle=orthogonalEdgeStyle;rounded=0;orthogonalLoop=1;jettySize=auto;html=1;entryX=0.5;entryY=0;entryDx=0;entryDy=0;" edge="1" parent="1" source="YzgCYqUCURwKcO3qDLiV-39" target="YzgCYqUCURwKcO3qDLiV-41">
          <mxGeometry relative="1" as="geometry" />
        </mxCell>
        <mxCell id="YzgCYqUCURwKcO3qDLiV-39" value="7.6 Określenie minimalnego zakresu pierwszej weryfikowalnej wersji wdrożonych zmian" style="rounded=1;whiteSpace=wrap;html=1;" vertex="1" parent="1">
          <mxGeometry x="320" y="1710" width="120" height="80" as="geometry" />
        </mxCell>
        <mxCell id="YzgCYqUCURwKcO3qDLiV-44" value="" style="edgeStyle=orthogonalEdgeStyle;rounded=0;orthogonalLoop=1;jettySize=auto;html=1;entryX=0.5;entryY=0;entryDx=0;entryDy=0;" edge="1" parent="1" source="YzgCYqUCURwKcO3qDLiV-41" target="YzgCYqUCURwKcO3qDLiV-43">
          <mxGeometry relative="1" as="geometry" />
        </mxCell>
        <mxCell id="YzgCYqUCURwKcO3qDLiV-41" value="7.7 Ustalenie wstępnego planu działań wraz z ich przewidywanymi kosztami oraz wzajemnymi zależnościami" style="rounded=1;whiteSpace=wrap;html=1;" vertex="1" parent="1">
          <mxGeometry x="160" y="1770" width="120" height="110" as="geometry" />
        </mxCell>
        <mxCell id="YzgCYqUCURwKcO3qDLiV-46" value="" style="edgeStyle=orthogonalEdgeStyle;rounded=0;orthogonalLoop=1;jettySize=auto;html=1;entryX=0.5;entryY=0;entryDx=0;entryDy=0;" edge="1" parent="1" source="YzgCYqUCURwKcO3qDLiV-43" target="YzgCYqUCURwKcO3qDLiV-45">
          <mxGeometry relative="1" as="geometry" />
        </mxCell>
        <mxCell id="YzgCYqUCURwKcO3qDLiV-43" value="7.8 Iteracyjne wdrażanie zmian i ich bieżąca weryfikacja" style="rounded=1;whiteSpace=wrap;html=1;" vertex="1" parent="1">
          <mxGeometry x="320" y="1864" width="120" height="50" as="geometry" />
        </mxCell>
        <mxCell id="YzgCYqUCURwKcO3qDLiV-48" value="" style="edgeStyle=orthogonalEdgeStyle;rounded=0;orthogonalLoop=1;jettySize=auto;html=1;entryX=0.5;entryY=0;entryDx=0;entryDy=0;" edge="1" parent="1" source="YzgCYqUCURwKcO3qDLiV-45" target="YzgCYqUCURwKcO3qDLiV-47">
          <mxGeometry relative="1" as="geometry" />
        </mxCell>
        <mxCell id="YzgCYqUCURwKcO3qDLiV-45" value="7.9 Iteracyjne przeglądy i doskonalenie sposobów pracy i współpracy zespołu" style="rounded=1;whiteSpace=wrap;html=1;" vertex="1" parent="1">
          <mxGeometry x="160" y="1910" width="120" height="80" as="geometry" />
        </mxCell>
        <mxCell id="YzgCYqUCURwKcO3qDLiV-50" value="" style="edgeStyle=orthogonalEdgeStyle;rounded=0;orthogonalLoop=1;jettySize=auto;html=1;entryX=0.716;entryY=0.184;entryDx=0;entryDy=0;entryPerimeter=0;" edge="1" parent="1" source="YzgCYqUCURwKcO3qDLiV-47" target="YzgCYqUCURwKcO3qDLiV-51">
          <mxGeometry relative="1" as="geometry">
            <mxPoint x="250" y="2330" as="targetPoint" />
            <Array as="points">
              <mxPoint x="260" y="2020" />
              <mxPoint x="260" y="2046" />
            </Array>
          </mxGeometry>
        </mxCell>
        <mxCell id="YzgCYqUCURwKcO3qDLiV-47" value="7.10 Weryfikacja pierwszej wersji udoskonaleń i ustalenie kolenych etapów najbardziej wartościowych zmian" style="rounded=1;whiteSpace=wrap;html=1;" vertex="1" parent="1">
          <mxGeometry x="320" y="1970" width="120" height="100" as="geometry" />
        </mxCell>
        <mxCell id="YzgCYqUCURwKcO3qDLiV-51" value="7.11 Iteracyjne &lt;br&gt;wdrażanie kolejnych udoskonaleń, &lt;br&gt;aż do osiągnięcia celu poprawy lub określenia nowych celów &lt;br&gt;doskonalenia" style="ellipse;shape=umlControl;whiteSpace=wrap;html=1;strokeWidth=2;" vertex="1" parent="1">
          <mxGeometry x="160" y="2020" width="140" height="140" as="geometry" />
        </mxCell>
        <mxCell id="YzgCYqUCURwKcO3qDLiV-54" value="" style="edgeStyle=orthogonalEdgeStyle;rounded=0;orthogonalLoop=1;jettySize=auto;html=1;" edge="1" parent="1" source="YzgCYqUCURwKcO3qDLiV-52" target="YzgCYqUCURwKcO3qDLiV-53">
          <mxGeometry relative="1" as="geometry" />
        </mxCell>
        <mxCell id="YzgCYqUCURwKcO3qDLiV-52" value="7.12 Szczegółowe określenie celu do osiągnięcia" style="rounded=1;whiteSpace=wrap;html=1;" vertex="1" parent="1">
          <mxGeometry x="600" y="1560" width="120" height="60" as="geometry" />
        </mxCell>
        <mxCell id="YzgCYqUCURwKcO3qDLiV-56" value="" style="edgeStyle=orthogonalEdgeStyle;rounded=0;orthogonalLoop=1;jettySize=auto;html=1;" edge="1" parent="1" source="YzgCYqUCURwKcO3qDLiV-53" target="YzgCYqUCURwKcO3qDLiV-55">
          <mxGeometry relative="1" as="geometry" />
        </mxCell>
        <mxCell id="YzgCYqUCURwKcO3qDLiV-53" value="7.13 Wykonanie planu wdrożenia przy uwzględnieniu dostępnych zasobów" style="rounded=1;whiteSpace=wrap;html=1;" vertex="1" parent="1">
          <mxGeometry x="600" y="1640" width="120" height="60" as="geometry" />
        </mxCell>
        <mxCell id="YzgCYqUCURwKcO3qDLiV-58" value="" style="edgeStyle=orthogonalEdgeStyle;rounded=0;orthogonalLoop=1;jettySize=auto;html=1;" edge="1" parent="1" source="YzgCYqUCURwKcO3qDLiV-55" target="YzgCYqUCURwKcO3qDLiV-57">
          <mxGeometry relative="1" as="geometry" />
        </mxCell>
        <mxCell id="YzgCYqUCURwKcO3qDLiV-55" value="7.14 Weryfikacja planu i opracowanie harmonogramu wraz z harmonogramem wykorzystania zasobów" style="rounded=1;whiteSpace=wrap;html=1;" vertex="1" parent="1">
          <mxGeometry x="600" y="1720" width="120" height="90" as="geometry" />
        </mxCell>
        <mxCell id="YzgCYqUCURwKcO3qDLiV-60" value="" style="edgeStyle=orthogonalEdgeStyle;rounded=0;orthogonalLoop=1;jettySize=auto;html=1;" edge="1" parent="1" source="YzgCYqUCURwKcO3qDLiV-57" target="YzgCYqUCURwKcO3qDLiV-59">
          <mxGeometry relative="1" as="geometry" />
        </mxCell>
        <mxCell id="YzgCYqUCURwKcO3qDLiV-57" value="7.15 Określenie ścieżki krytycznej projektu i najistotniejszych ryzyk do monitorowania" style="rounded=1;whiteSpace=wrap;html=1;" vertex="1" parent="1">
          <mxGeometry x="600" y="1830" width="120" height="90" as="geometry" />
        </mxCell>
        <mxCell id="YzgCYqUCURwKcO3qDLiV-62" value="" style="edgeStyle=orthogonalEdgeStyle;rounded=0;orthogonalLoop=1;jettySize=auto;html=1;" edge="1" parent="1" source="YzgCYqUCURwKcO3qDLiV-59" target="YzgCYqUCURwKcO3qDLiV-61">
          <mxGeometry relative="1" as="geometry" />
        </mxCell>
        <mxCell id="YzgCYqUCURwKcO3qDLiV-59" value="7.16 Wprowadzenie ewentualnych korekt do planu" style="rounded=1;whiteSpace=wrap;html=1;" vertex="1" parent="1">
          <mxGeometry x="600" y="1940" width="120" height="50" as="geometry" />
        </mxCell>
        <mxCell id="YzgCYqUCURwKcO3qDLiV-64" value="" style="edgeStyle=orthogonalEdgeStyle;rounded=0;orthogonalLoop=1;jettySize=auto;html=1;" edge="1" parent="1" source="YzgCYqUCURwKcO3qDLiV-61" target="YzgCYqUCURwKcO3qDLiV-63">
          <mxGeometry relative="1" as="geometry" />
        </mxCell>
        <mxCell id="YzgCYqUCURwKcO3qDLiV-61" value="7.17 Realizacja &lt;br&gt;planu i monitorowanie sytuacji w celu identyfikacji konieczności wprowadzenia korekt" style="rounded=1;whiteSpace=wrap;html=1;" vertex="1" parent="1">
          <mxGeometry x="600" y="2010" width="120" height="100" as="geometry" />
        </mxCell>
        <mxCell id="YzgCYqUCURwKcO3qDLiV-63" value="7.18 Weryfikacja stopnia osiągnięcia celu poprawy" style="rounded=1;whiteSpace=wrap;html=1;" vertex="1" parent="1">
          <mxGeometry x="600" y="2130" width="120" height="50" as="geometry" />
        </mxCell>
        <mxCell id="YzgCYqUCURwKcO3qDLiV-65" value="8. Zaplanowanie ciągłego pozyskiwania informacji zwrotnej" style="rounded=1;whiteSpace=wrap;html=1;" vertex="1" parent="1">
          <mxGeometry x="40" y="2200" width="160" height="120" as="geometry" />
        </mxCell>
        <mxCell id="YzgCYqUCURwKcO3qDLiV-69" value="" style="edgeStyle=orthogonalEdgeStyle;rounded=0;orthogonalLoop=1;jettySize=auto;html=1;" edge="1" parent="1" source="YzgCYqUCURwKcO3qDLiV-67" target="YzgCYqUCURwKcO3qDLiV-68">
          <mxGeometry relative="1" as="geometry" />
        </mxCell>
        <mxCell id="YzgCYqUCURwKcO3qDLiV-67" value="8.1 Ustalenie szczegółów metod pozyskiwania informacji zwrotnej&amp;nbsp;" style="rounded=1;whiteSpace=wrap;html=1;" vertex="1" parent="1">
          <mxGeometry x="240" y="2260" width="120" height="60" as="geometry" />
        </mxCell>
        <mxCell id="YzgCYqUCURwKcO3qDLiV-71" value="" style="edgeStyle=orthogonalEdgeStyle;rounded=0;orthogonalLoop=1;jettySize=auto;html=1;" edge="1" parent="1" source="YzgCYqUCURwKcO3qDLiV-68" target="YzgCYqUCURwKcO3qDLiV-70">
          <mxGeometry relative="1" as="geometry" />
        </mxCell>
        <mxCell id="YzgCYqUCURwKcO3qDLiV-68" value="8.2 Zaplanowanie regularnych cykli pozyskiwania informacji zwrotnej" style="rounded=1;whiteSpace=wrap;html=1;" vertex="1" parent="1">
          <mxGeometry x="380" y="2260" width="120" height="60" as="geometry" />
        </mxCell>
        <mxCell id="YzgCYqUCURwKcO3qDLiV-73" value="" style="edgeStyle=orthogonalEdgeStyle;rounded=0;orthogonalLoop=1;jettySize=auto;html=1;" edge="1" parent="1" source="YzgCYqUCURwKcO3qDLiV-70" target="YzgCYqUCURwKcO3qDLiV-72">
          <mxGeometry relative="1" as="geometry" />
        </mxCell>
        <mxCell id="YzgCYqUCURwKcO3qDLiV-70" value="8.3 Automatyzacja procesu pozyskiwania informacji zwrotnej tam gdzie to możliwe" style="rounded=1;whiteSpace=wrap;html=1;" vertex="1" parent="1">
          <mxGeometry x="520" y="2250" width="120" height="80" as="geometry" />
        </mxCell>
        <mxCell id="YzgCYqUCURwKcO3qDLiV-72" value="8.4 Zaangażowanie intersariuszy w proces udzielania informacji zwrotnej" style="rounded=1;whiteSpace=wrap;html=1;" vertex="1" parent="1">
          <mxGeometry x="660" y="2260" width="120" height="60" as="geometry" />
        </mxCell>
        <mxCell id="YzgCYqUCURwKcO3qDLiV-74" value="9. Ciągłe doskonalenie" style="rounded=1;whiteSpace=wrap;html=1;" vertex="1" parent="1">
          <mxGeometry x="40" y="2360" width="160" height="120" as="geometry" />
        </mxCell>
        <mxCell id="YzgCYqUCURwKcO3qDLiV-77" value="" style="edgeStyle=orthogonalEdgeStyle;rounded=0;orthogonalLoop=1;jettySize=auto;html=1;" edge="1" parent="1" source="YzgCYqUCURwKcO3qDLiV-75" target="YzgCYqUCURwKcO3qDLiV-76">
          <mxGeometry relative="1" as="geometry" />
        </mxCell>
        <mxCell id="YzgCYqUCURwKcO3qDLiV-75" value="9.1 Identyfikacja&lt;br&gt;i ustanowienie wskaźników pozwalających&lt;br&gt;na wiarygodne mierzenie i weryfikację efektów działalności uczelni oraz wprowadzanych zmian" style="rounded=1;whiteSpace=wrap;html=1;" vertex="1" parent="1">
          <mxGeometry x="240" y="2360" width="140" height="120" as="geometry" />
        </mxCell>
        <mxCell id="YzgCYqUCURwKcO3qDLiV-79" value="" style="edgeStyle=orthogonalEdgeStyle;rounded=0;orthogonalLoop=1;jettySize=auto;html=1;" edge="1" parent="1" source="YzgCYqUCURwKcO3qDLiV-76" target="YzgCYqUCURwKcO3qDLiV-78">
          <mxGeometry relative="1" as="geometry" />
        </mxCell>
        <mxCell id="YzgCYqUCURwKcO3qDLiV-76" value="9.1.1 Opracowanie zestawu wskaźników na podstawie dostępnej literatury oraz własnych badan uwzględniających specyfikę organizacji" style="whiteSpace=wrap;html=1;rounded=1;" vertex="1" parent="1">
          <mxGeometry x="400" y="2360" width="120" height="120" as="geometry" />
        </mxCell>
        <mxCell id="YzgCYqUCURwKcO3qDLiV-81" style="edgeStyle=orthogonalEdgeStyle;rounded=0;orthogonalLoop=1;jettySize=auto;html=1;entryX=0.5;entryY=0;entryDx=0;entryDy=0;dashed=1;" edge="1" parent="1" source="YzgCYqUCURwKcO3qDLiV-78" target="YzgCYqUCURwKcO3qDLiV-80">
          <mxGeometry relative="1" as="geometry">
            <Array as="points">
              <mxPoint x="690" y="2420" />
              <mxPoint x="690" y="2500" />
              <mxPoint x="310" y="2500" />
            </Array>
          </mxGeometry>
        </mxCell>
        <mxCell id="YzgCYqUCURwKcO3qDLiV-78" value="9.1.2 Podjęcie zobowiązania przez najwyższe kierownictwo do długoterminowego utrzymania pomiaru wybranych stałych wskaźników" style="whiteSpace=wrap;html=1;rounded=1;" vertex="1" parent="1">
          <mxGeometry x="550" y="2360" width="120" height="120" as="geometry" />
        </mxCell>
        <mxCell id="YzgCYqUCURwKcO3qDLiV-83" value="" style="edgeStyle=orthogonalEdgeStyle;rounded=0;orthogonalLoop=1;jettySize=auto;html=1;" edge="1" parent="1" source="YzgCYqUCURwKcO3qDLiV-80" target="YzgCYqUCURwKcO3qDLiV-82">
          <mxGeometry relative="1" as="geometry" />
        </mxCell>
        <mxCell id="YzgCYqUCURwKcO3qDLiV-80" value="9.2 Ustanowienie cykli pomiaru i weryfikacji efektów działań uczelni oraz działań doskonalących" style="rounded=1;whiteSpace=wrap;html=1;" vertex="1" parent="1">
          <mxGeometry x="240" y="2520" width="140" height="80" as="geometry" />
        </mxCell>
        <mxCell id="YzgCYqUCURwKcO3qDLiV-85" value="" style="edgeStyle=orthogonalEdgeStyle;rounded=0;orthogonalLoop=1;jettySize=auto;html=1;" edge="1" parent="1" source="YzgCYqUCURwKcO3qDLiV-82" target="YzgCYqUCURwKcO3qDLiV-84">
          <mxGeometry relative="1" as="geometry" />
        </mxCell>
        <mxCell id="YzgCYqUCURwKcO3qDLiV-82" value="9.2.1 Ustalenie potrzeb&lt;br&gt;w zakresie długości cyklu pomiaru i weryfikacji efektów działań uczelni&amp;nbsp;" style="rounded=1;whiteSpace=wrap;html=1;" vertex="1" parent="1">
          <mxGeometry x="410" y="2520" width="140" height="80" as="geometry" />
        </mxCell>
        <mxCell id="YzgCYqUCURwKcO3qDLiV-87" style="edgeStyle=orthogonalEdgeStyle;rounded=0;orthogonalLoop=1;jettySize=auto;html=1;exitX=1;exitY=0.5;exitDx=0;exitDy=0;dashed=1;" edge="1" parent="1" source="YzgCYqUCURwKcO3qDLiV-84" target="YzgCYqUCURwKcO3qDLiV-86">
          <mxGeometry relative="1" as="geometry" />
        </mxCell>
        <mxCell id="YzgCYqUCURwKcO3qDLiV-84" value="9.2.2 Ustanowienie zestawu metod pomiaru&lt;br&gt;i weryfikacji efektów działań uczelni&amp;nbsp;" style="rounded=1;whiteSpace=wrap;html=1;" vertex="1" parent="1">
          <mxGeometry x="580" y="2520" width="140" height="80" as="geometry" />
        </mxCell>
        <mxCell id="YzgCYqUCURwKcO3qDLiV-89" value="" style="edgeStyle=orthogonalEdgeStyle;rounded=0;orthogonalLoop=1;jettySize=auto;html=1;" edge="1" parent="1" source="YzgCYqUCURwKcO3qDLiV-86" target="YzgCYqUCURwKcO3qDLiV-88">
          <mxGeometry relative="1" as="geometry" />
        </mxCell>
        <mxCell id="YzgCYqUCURwKcO3qDLiV-86" value="9.3 Ustanowienie cykli przeglądu wniosków z pomiaru efektów działań oraz pozyskiwania informacji zwrotnej od interesariuszy" style="rounded=1;whiteSpace=wrap;html=1;" vertex="1" parent="1">
          <mxGeometry x="240" y="2640" width="140" height="90" as="geometry" />
        </mxCell>
        <mxCell id="YzgCYqUCURwKcO3qDLiV-91" value="" style="edgeStyle=orthogonalEdgeStyle;rounded=0;orthogonalLoop=1;jettySize=auto;html=1;" edge="1" parent="1" source="YzgCYqUCURwKcO3qDLiV-88" target="YzgCYqUCURwKcO3qDLiV-90">
          <mxGeometry relative="1" as="geometry" />
        </mxCell>
        <mxCell id="YzgCYqUCURwKcO3qDLiV-88" value="9.4 Ustanowienie cykli regularnej analizy kolejnych obszarów&lt;br&gt;do poprawy oraz wdrażania zmian" style="rounded=1;whiteSpace=wrap;html=1;" vertex="1" parent="1">
          <mxGeometry x="240" y="2750" width="140" height="80" as="geometry" />
        </mxCell>
        <mxCell id="YzgCYqUCURwKcO3qDLiV-93" value="" style="edgeStyle=orthogonalEdgeStyle;rounded=0;orthogonalLoop=1;jettySize=auto;html=1;" edge="1" parent="1" source="YzgCYqUCURwKcO3qDLiV-90" target="YzgCYqUCURwKcO3qDLiV-92">
          <mxGeometry relative="1" as="geometry" />
        </mxCell>
        <mxCell id="YzgCYqUCURwKcO3qDLiV-90" value="9.5 Zaplanowanie sposobów na świętowanie sukcesów&lt;br&gt;w zakresie wybranych spośród najistotniejszych wskaźników efektów działań" style="rounded=1;whiteSpace=wrap;html=1;" vertex="1" parent="1">
          <mxGeometry x="240" y="2850" width="140" height="100" as="geometry" />
        </mxCell>
        <mxCell id="YzgCYqUCURwKcO3qDLiV-95" value="" style="edgeStyle=orthogonalEdgeStyle;rounded=0;orthogonalLoop=1;jettySize=auto;html=1;" edge="1" parent="1" source="YzgCYqUCURwKcO3qDLiV-92" target="YzgCYqUCURwKcO3qDLiV-94">
          <mxGeometry relative="1" as="geometry" />
        </mxCell>
        <mxCell id="YzgCYqUCURwKcO3qDLiV-92" value="9.6 Ustanowienie sposobów transparentnego gromadzenia wiedzy w zakresie działań doskonalących" style="rounded=1;whiteSpace=wrap;html=1;" vertex="1" parent="1">
          <mxGeometry x="240" y="2970" width="140" height="90" as="geometry" />
        </mxCell>
        <mxCell id="YzgCYqUCURwKcO3qDLiV-94" value="9.7 Ustanowienie regularnych przeglądów procesu ciągłego doskonalenia oraz wdrażanie potrzebnych modyfikacji w ramach samego procesu" style="rounded=1;whiteSpace=wrap;html=1;" vertex="1" parent="1">
          <mxGeometry x="240" y="3080" width="140" height="110" as="geometry" />
        </mxCell>
      </root>
    </mxGraphModel>
  </diagram>
</mxfile>
